%TF.GenerationSoftware,KiCad,Pcbnew,9.0.7*%
%TF.CreationDate,2026-03-02T00:32:54+02:00*%
%TF.ProjectId,stm32h755xih3,73746d33-3268-4373-9535-786968332e6b,rev?*%
%TF.SameCoordinates,Original*%
%TF.FileFunction,Legend,Top*%
%TF.FilePolarity,Positive*%
%FSLAX46Y46*%
G04 Gerber Fmt 4.6, Leading zero omitted, Abs format (unit mm)*
G04 Created by KiCad (PCBNEW 9.0.7) date 2026-03-02 00:32:54*
%MOMM*%
%LPD*%
G01*
G04 APERTURE LIST*
%ADD10C,0.200000*%
%ADD11C,0.120000*%
%ADD12C,0.100000*%
%ADD13C,0.127000*%
G04 APERTURE END LIST*
D10*
X121494762Y-58697275D02*
X122066190Y-58697275D01*
X121780476Y-59697275D02*
X121780476Y-58697275D01*
X122399524Y-59173465D02*
X122732857Y-59173465D01*
X122875714Y-59697275D02*
X122399524Y-59697275D01*
X122399524Y-59697275D02*
X122399524Y-58697275D01*
X122399524Y-58697275D02*
X122875714Y-58697275D01*
X123256667Y-59649656D02*
X123399524Y-59697275D01*
X123399524Y-59697275D02*
X123637619Y-59697275D01*
X123637619Y-59697275D02*
X123732857Y-59649656D01*
X123732857Y-59649656D02*
X123780476Y-59602036D01*
X123780476Y-59602036D02*
X123828095Y-59506798D01*
X123828095Y-59506798D02*
X123828095Y-59411560D01*
X123828095Y-59411560D02*
X123780476Y-59316322D01*
X123780476Y-59316322D02*
X123732857Y-59268703D01*
X123732857Y-59268703D02*
X123637619Y-59221084D01*
X123637619Y-59221084D02*
X123447143Y-59173465D01*
X123447143Y-59173465D02*
X123351905Y-59125846D01*
X123351905Y-59125846D02*
X123304286Y-59078227D01*
X123304286Y-59078227D02*
X123256667Y-58982989D01*
X123256667Y-58982989D02*
X123256667Y-58887751D01*
X123256667Y-58887751D02*
X123304286Y-58792513D01*
X123304286Y-58792513D02*
X123351905Y-58744894D01*
X123351905Y-58744894D02*
X123447143Y-58697275D01*
X123447143Y-58697275D02*
X123685238Y-58697275D01*
X123685238Y-58697275D02*
X123828095Y-58744894D01*
X124113810Y-58697275D02*
X124685238Y-58697275D01*
X124399524Y-59697275D02*
X124399524Y-58697275D01*
X122447142Y-61307219D02*
X121970952Y-61307219D01*
X121970952Y-61307219D02*
X121970952Y-60307219D01*
X122780476Y-60783409D02*
X123113809Y-60783409D01*
X123256666Y-61307219D02*
X122780476Y-61307219D01*
X122780476Y-61307219D02*
X122780476Y-60307219D01*
X122780476Y-60307219D02*
X123256666Y-60307219D01*
X123685238Y-61307219D02*
X123685238Y-60307219D01*
X123685238Y-60307219D02*
X123923333Y-60307219D01*
X123923333Y-60307219D02*
X124066190Y-60354838D01*
X124066190Y-60354838D02*
X124161428Y-60450076D01*
X124161428Y-60450076D02*
X124209047Y-60545314D01*
X124209047Y-60545314D02*
X124256666Y-60735790D01*
X124256666Y-60735790D02*
X124256666Y-60878647D01*
X124256666Y-60878647D02*
X124209047Y-61069123D01*
X124209047Y-61069123D02*
X124161428Y-61164361D01*
X124161428Y-61164361D02*
X124066190Y-61259600D01*
X124066190Y-61259600D02*
X123923333Y-61307219D01*
X123923333Y-61307219D02*
X123685238Y-61307219D01*
X116466667Y-59537275D02*
X116466667Y-58537275D01*
X116466667Y-58537275D02*
X116847619Y-58537275D01*
X116847619Y-58537275D02*
X116942857Y-58584894D01*
X116942857Y-58584894D02*
X116990476Y-58632513D01*
X116990476Y-58632513D02*
X117038095Y-58727751D01*
X117038095Y-58727751D02*
X117038095Y-58870608D01*
X117038095Y-58870608D02*
X116990476Y-58965846D01*
X116990476Y-58965846D02*
X116942857Y-59013465D01*
X116942857Y-59013465D02*
X116847619Y-59061084D01*
X116847619Y-59061084D02*
X116466667Y-59061084D01*
X117371429Y-58537275D02*
X117609524Y-59537275D01*
X117609524Y-59537275D02*
X117800000Y-58822989D01*
X117800000Y-58822989D02*
X117990476Y-59537275D01*
X117990476Y-59537275D02*
X118228572Y-58537275D01*
X119180952Y-59537275D02*
X118847619Y-59061084D01*
X118609524Y-59537275D02*
X118609524Y-58537275D01*
X118609524Y-58537275D02*
X118990476Y-58537275D01*
X118990476Y-58537275D02*
X119085714Y-58584894D01*
X119085714Y-58584894D02*
X119133333Y-58632513D01*
X119133333Y-58632513D02*
X119180952Y-58727751D01*
X119180952Y-58727751D02*
X119180952Y-58870608D01*
X119180952Y-58870608D02*
X119133333Y-58965846D01*
X119133333Y-58965846D02*
X119085714Y-59013465D01*
X119085714Y-59013465D02*
X118990476Y-59061084D01*
X118990476Y-59061084D02*
X118609524Y-59061084D01*
X117157142Y-61147219D02*
X116680952Y-61147219D01*
X116680952Y-61147219D02*
X116680952Y-60147219D01*
X117490476Y-60623409D02*
X117823809Y-60623409D01*
X117966666Y-61147219D02*
X117490476Y-61147219D01*
X117490476Y-61147219D02*
X117490476Y-60147219D01*
X117490476Y-60147219D02*
X117966666Y-60147219D01*
X118395238Y-61147219D02*
X118395238Y-60147219D01*
X118395238Y-60147219D02*
X118633333Y-60147219D01*
X118633333Y-60147219D02*
X118776190Y-60194838D01*
X118776190Y-60194838D02*
X118871428Y-60290076D01*
X118871428Y-60290076D02*
X118919047Y-60385314D01*
X118919047Y-60385314D02*
X118966666Y-60575790D01*
X118966666Y-60575790D02*
X118966666Y-60718647D01*
X118966666Y-60718647D02*
X118919047Y-60909123D01*
X118919047Y-60909123D02*
X118871428Y-61004361D01*
X118871428Y-61004361D02*
X118776190Y-61099600D01*
X118776190Y-61099600D02*
X118633333Y-61147219D01*
X118633333Y-61147219D02*
X118395238Y-61147219D01*
X99886667Y-55567219D02*
X99886667Y-54567219D01*
X99886667Y-54567219D02*
X100267619Y-54567219D01*
X100267619Y-54567219D02*
X100362857Y-54614838D01*
X100362857Y-54614838D02*
X100410476Y-54662457D01*
X100410476Y-54662457D02*
X100458095Y-54757695D01*
X100458095Y-54757695D02*
X100458095Y-54900552D01*
X100458095Y-54900552D02*
X100410476Y-54995790D01*
X100410476Y-54995790D02*
X100362857Y-55043409D01*
X100362857Y-55043409D02*
X100267619Y-55091028D01*
X100267619Y-55091028D02*
X99886667Y-55091028D01*
X100791429Y-54567219D02*
X101029524Y-55567219D01*
X101029524Y-55567219D02*
X101220000Y-54852933D01*
X101220000Y-54852933D02*
X101410476Y-55567219D01*
X101410476Y-55567219D02*
X101648572Y-54567219D01*
X102600952Y-55567219D02*
X102267619Y-55091028D01*
X102029524Y-55567219D02*
X102029524Y-54567219D01*
X102029524Y-54567219D02*
X102410476Y-54567219D01*
X102410476Y-54567219D02*
X102505714Y-54614838D01*
X102505714Y-54614838D02*
X102553333Y-54662457D01*
X102553333Y-54662457D02*
X102600952Y-54757695D01*
X102600952Y-54757695D02*
X102600952Y-54900552D01*
X102600952Y-54900552D02*
X102553333Y-54995790D01*
X102553333Y-54995790D02*
X102505714Y-55043409D01*
X102505714Y-55043409D02*
X102410476Y-55091028D01*
X102410476Y-55091028D02*
X102029524Y-55091028D01*
X137548095Y-55727219D02*
X137548095Y-54727219D01*
X137548095Y-54727219D02*
X137786190Y-54727219D01*
X137786190Y-54727219D02*
X137929047Y-54774838D01*
X137929047Y-54774838D02*
X138024285Y-54870076D01*
X138024285Y-54870076D02*
X138071904Y-54965314D01*
X138071904Y-54965314D02*
X138119523Y-55155790D01*
X138119523Y-55155790D02*
X138119523Y-55298647D01*
X138119523Y-55298647D02*
X138071904Y-55489123D01*
X138071904Y-55489123D02*
X138024285Y-55584361D01*
X138024285Y-55584361D02*
X137929047Y-55679600D01*
X137929047Y-55679600D02*
X137786190Y-55727219D01*
X137786190Y-55727219D02*
X137548095Y-55727219D01*
X135049523Y-55631980D02*
X135001904Y-55679600D01*
X135001904Y-55679600D02*
X134859047Y-55727219D01*
X134859047Y-55727219D02*
X134763809Y-55727219D01*
X134763809Y-55727219D02*
X134620952Y-55679600D01*
X134620952Y-55679600D02*
X134525714Y-55584361D01*
X134525714Y-55584361D02*
X134478095Y-55489123D01*
X134478095Y-55489123D02*
X134430476Y-55298647D01*
X134430476Y-55298647D02*
X134430476Y-55155790D01*
X134430476Y-55155790D02*
X134478095Y-54965314D01*
X134478095Y-54965314D02*
X134525714Y-54870076D01*
X134525714Y-54870076D02*
X134620952Y-54774838D01*
X134620952Y-54774838D02*
X134763809Y-54727219D01*
X134763809Y-54727219D02*
X134859047Y-54727219D01*
X134859047Y-54727219D02*
X135001904Y-54774838D01*
X135001904Y-54774838D02*
X135049523Y-54822457D01*
X131801428Y-55123409D02*
X131944285Y-55171028D01*
X131944285Y-55171028D02*
X131991904Y-55218647D01*
X131991904Y-55218647D02*
X132039523Y-55313885D01*
X132039523Y-55313885D02*
X132039523Y-55456742D01*
X132039523Y-55456742D02*
X131991904Y-55551980D01*
X131991904Y-55551980D02*
X131944285Y-55599600D01*
X131944285Y-55599600D02*
X131849047Y-55647219D01*
X131849047Y-55647219D02*
X131468095Y-55647219D01*
X131468095Y-55647219D02*
X131468095Y-54647219D01*
X131468095Y-54647219D02*
X131801428Y-54647219D01*
X131801428Y-54647219D02*
X131896666Y-54694838D01*
X131896666Y-54694838D02*
X131944285Y-54742457D01*
X131944285Y-54742457D02*
X131991904Y-54837695D01*
X131991904Y-54837695D02*
X131991904Y-54932933D01*
X131991904Y-54932933D02*
X131944285Y-55028171D01*
X131944285Y-55028171D02*
X131896666Y-55075790D01*
X131896666Y-55075790D02*
X131801428Y-55123409D01*
X131801428Y-55123409D02*
X131468095Y-55123409D01*
X128421905Y-55341504D02*
X128898095Y-55341504D01*
X128326667Y-55627219D02*
X128660000Y-54627219D01*
X128660000Y-54627219D02*
X128993333Y-55627219D01*
X124774286Y-54802457D02*
X124821905Y-54754838D01*
X124821905Y-54754838D02*
X124917143Y-54707219D01*
X124917143Y-54707219D02*
X125155238Y-54707219D01*
X125155238Y-54707219D02*
X125250476Y-54754838D01*
X125250476Y-54754838D02*
X125298095Y-54802457D01*
X125298095Y-54802457D02*
X125345714Y-54897695D01*
X125345714Y-54897695D02*
X125345714Y-54992933D01*
X125345714Y-54992933D02*
X125298095Y-55135790D01*
X125298095Y-55135790D02*
X124726667Y-55707219D01*
X124726667Y-55707219D02*
X125345714Y-55707219D01*
X125774286Y-55707219D02*
X125774286Y-54707219D01*
X125774286Y-54707219D02*
X126012381Y-54707219D01*
X126012381Y-54707219D02*
X126155238Y-54754838D01*
X126155238Y-54754838D02*
X126250476Y-54850076D01*
X126250476Y-54850076D02*
X126298095Y-54945314D01*
X126298095Y-54945314D02*
X126345714Y-55135790D01*
X126345714Y-55135790D02*
X126345714Y-55278647D01*
X126345714Y-55278647D02*
X126298095Y-55469123D01*
X126298095Y-55469123D02*
X126250476Y-55564361D01*
X126250476Y-55564361D02*
X126155238Y-55659600D01*
X126155238Y-55659600D02*
X126012381Y-55707219D01*
X126012381Y-55707219D02*
X125774286Y-55707219D01*
X121744286Y-54782457D02*
X121791905Y-54734838D01*
X121791905Y-54734838D02*
X121887143Y-54687219D01*
X121887143Y-54687219D02*
X122125238Y-54687219D01*
X122125238Y-54687219D02*
X122220476Y-54734838D01*
X122220476Y-54734838D02*
X122268095Y-54782457D01*
X122268095Y-54782457D02*
X122315714Y-54877695D01*
X122315714Y-54877695D02*
X122315714Y-54972933D01*
X122315714Y-54972933D02*
X122268095Y-55115790D01*
X122268095Y-55115790D02*
X121696667Y-55687219D01*
X121696667Y-55687219D02*
X122315714Y-55687219D01*
X123315714Y-55591980D02*
X123268095Y-55639600D01*
X123268095Y-55639600D02*
X123125238Y-55687219D01*
X123125238Y-55687219D02*
X123030000Y-55687219D01*
X123030000Y-55687219D02*
X122887143Y-55639600D01*
X122887143Y-55639600D02*
X122791905Y-55544361D01*
X122791905Y-55544361D02*
X122744286Y-55449123D01*
X122744286Y-55449123D02*
X122696667Y-55258647D01*
X122696667Y-55258647D02*
X122696667Y-55115790D01*
X122696667Y-55115790D02*
X122744286Y-54925314D01*
X122744286Y-54925314D02*
X122791905Y-54830076D01*
X122791905Y-54830076D02*
X122887143Y-54734838D01*
X122887143Y-54734838D02*
X123030000Y-54687219D01*
X123030000Y-54687219D02*
X123125238Y-54687219D01*
X123125238Y-54687219D02*
X123268095Y-54734838D01*
X123268095Y-54734838D02*
X123315714Y-54782457D01*
X118734286Y-54632457D02*
X118781905Y-54584838D01*
X118781905Y-54584838D02*
X118877143Y-54537219D01*
X118877143Y-54537219D02*
X119115238Y-54537219D01*
X119115238Y-54537219D02*
X119210476Y-54584838D01*
X119210476Y-54584838D02*
X119258095Y-54632457D01*
X119258095Y-54632457D02*
X119305714Y-54727695D01*
X119305714Y-54727695D02*
X119305714Y-54822933D01*
X119305714Y-54822933D02*
X119258095Y-54965790D01*
X119258095Y-54965790D02*
X118686667Y-55537219D01*
X118686667Y-55537219D02*
X119305714Y-55537219D01*
X120067619Y-55013409D02*
X120210476Y-55061028D01*
X120210476Y-55061028D02*
X120258095Y-55108647D01*
X120258095Y-55108647D02*
X120305714Y-55203885D01*
X120305714Y-55203885D02*
X120305714Y-55346742D01*
X120305714Y-55346742D02*
X120258095Y-55441980D01*
X120258095Y-55441980D02*
X120210476Y-55489600D01*
X120210476Y-55489600D02*
X120115238Y-55537219D01*
X120115238Y-55537219D02*
X119734286Y-55537219D01*
X119734286Y-55537219D02*
X119734286Y-54537219D01*
X119734286Y-54537219D02*
X120067619Y-54537219D01*
X120067619Y-54537219D02*
X120162857Y-54584838D01*
X120162857Y-54584838D02*
X120210476Y-54632457D01*
X120210476Y-54632457D02*
X120258095Y-54727695D01*
X120258095Y-54727695D02*
X120258095Y-54822933D01*
X120258095Y-54822933D02*
X120210476Y-54918171D01*
X120210476Y-54918171D02*
X120162857Y-54965790D01*
X120162857Y-54965790D02*
X120067619Y-55013409D01*
X120067619Y-55013409D02*
X119734286Y-55013409D01*
X115715714Y-54672457D02*
X115763333Y-54624838D01*
X115763333Y-54624838D02*
X115858571Y-54577219D01*
X115858571Y-54577219D02*
X116096666Y-54577219D01*
X116096666Y-54577219D02*
X116191904Y-54624838D01*
X116191904Y-54624838D02*
X116239523Y-54672457D01*
X116239523Y-54672457D02*
X116287142Y-54767695D01*
X116287142Y-54767695D02*
X116287142Y-54862933D01*
X116287142Y-54862933D02*
X116239523Y-55005790D01*
X116239523Y-55005790D02*
X115668095Y-55577219D01*
X115668095Y-55577219D02*
X116287142Y-55577219D01*
X116668095Y-55291504D02*
X117144285Y-55291504D01*
X116572857Y-55577219D02*
X116906190Y-54577219D01*
X116906190Y-54577219D02*
X117239523Y-55577219D01*
X113225714Y-55557219D02*
X112654286Y-55557219D01*
X112940000Y-55557219D02*
X112940000Y-54557219D01*
X112940000Y-54557219D02*
X112844762Y-54700076D01*
X112844762Y-54700076D02*
X112749524Y-54795314D01*
X112749524Y-54795314D02*
X112654286Y-54842933D01*
X113654286Y-55557219D02*
X113654286Y-54557219D01*
X113654286Y-54557219D02*
X113892381Y-54557219D01*
X113892381Y-54557219D02*
X114035238Y-54604838D01*
X114035238Y-54604838D02*
X114130476Y-54700076D01*
X114130476Y-54700076D02*
X114178095Y-54795314D01*
X114178095Y-54795314D02*
X114225714Y-54985790D01*
X114225714Y-54985790D02*
X114225714Y-55128647D01*
X114225714Y-55128647D02*
X114178095Y-55319123D01*
X114178095Y-55319123D02*
X114130476Y-55414361D01*
X114130476Y-55414361D02*
X114035238Y-55509600D01*
X114035238Y-55509600D02*
X113892381Y-55557219D01*
X113892381Y-55557219D02*
X113654286Y-55557219D01*
X110195714Y-55517219D02*
X109624286Y-55517219D01*
X109910000Y-55517219D02*
X109910000Y-54517219D01*
X109910000Y-54517219D02*
X109814762Y-54660076D01*
X109814762Y-54660076D02*
X109719524Y-54755314D01*
X109719524Y-54755314D02*
X109624286Y-54802933D01*
X111195714Y-55421980D02*
X111148095Y-55469600D01*
X111148095Y-55469600D02*
X111005238Y-55517219D01*
X111005238Y-55517219D02*
X110910000Y-55517219D01*
X110910000Y-55517219D02*
X110767143Y-55469600D01*
X110767143Y-55469600D02*
X110671905Y-55374361D01*
X110671905Y-55374361D02*
X110624286Y-55279123D01*
X110624286Y-55279123D02*
X110576667Y-55088647D01*
X110576667Y-55088647D02*
X110576667Y-54945790D01*
X110576667Y-54945790D02*
X110624286Y-54755314D01*
X110624286Y-54755314D02*
X110671905Y-54660076D01*
X110671905Y-54660076D02*
X110767143Y-54564838D01*
X110767143Y-54564838D02*
X110910000Y-54517219D01*
X110910000Y-54517219D02*
X111005238Y-54517219D01*
X111005238Y-54517219D02*
X111148095Y-54564838D01*
X111148095Y-54564838D02*
X111195714Y-54612457D01*
X106975714Y-55477219D02*
X106404286Y-55477219D01*
X106690000Y-55477219D02*
X106690000Y-54477219D01*
X106690000Y-54477219D02*
X106594762Y-54620076D01*
X106594762Y-54620076D02*
X106499524Y-54715314D01*
X106499524Y-54715314D02*
X106404286Y-54762933D01*
X107737619Y-54953409D02*
X107880476Y-55001028D01*
X107880476Y-55001028D02*
X107928095Y-55048647D01*
X107928095Y-55048647D02*
X107975714Y-55143885D01*
X107975714Y-55143885D02*
X107975714Y-55286742D01*
X107975714Y-55286742D02*
X107928095Y-55381980D01*
X107928095Y-55381980D02*
X107880476Y-55429600D01*
X107880476Y-55429600D02*
X107785238Y-55477219D01*
X107785238Y-55477219D02*
X107404286Y-55477219D01*
X107404286Y-55477219D02*
X107404286Y-54477219D01*
X107404286Y-54477219D02*
X107737619Y-54477219D01*
X107737619Y-54477219D02*
X107832857Y-54524838D01*
X107832857Y-54524838D02*
X107880476Y-54572457D01*
X107880476Y-54572457D02*
X107928095Y-54667695D01*
X107928095Y-54667695D02*
X107928095Y-54762933D01*
X107928095Y-54762933D02*
X107880476Y-54858171D01*
X107880476Y-54858171D02*
X107832857Y-54905790D01*
X107832857Y-54905790D02*
X107737619Y-54953409D01*
X107737619Y-54953409D02*
X107404286Y-54953409D01*
X104127142Y-55537219D02*
X103555714Y-55537219D01*
X103841428Y-55537219D02*
X103841428Y-54537219D01*
X103841428Y-54537219D02*
X103746190Y-54680076D01*
X103746190Y-54680076D02*
X103650952Y-54775314D01*
X103650952Y-54775314D02*
X103555714Y-54822933D01*
X104508095Y-55251504D02*
X104984285Y-55251504D01*
X104412857Y-55537219D02*
X104746190Y-54537219D01*
X104746190Y-54537219D02*
X105079523Y-55537219D01*
D11*
%TO.C,U1*%
X109615000Y-66040000D02*
X110565000Y-66040000D01*
X109615000Y-66990000D02*
X109615000Y-66040000D01*
X109615000Y-86260000D02*
X109615000Y-85310000D01*
X110565000Y-86260000D02*
X109615000Y-86260000D01*
X128885000Y-66040000D02*
X129835000Y-66040000D01*
X129835000Y-66040000D02*
X129835000Y-66990000D01*
X129835000Y-85310000D02*
X129835000Y-86260000D01*
X129835000Y-86260000D02*
X128885000Y-86260000D01*
X108975000Y-66990000D02*
X108635000Y-66520000D01*
X109315000Y-66520000D01*
X108975000Y-66990000D01*
G36*
X108975000Y-66990000D02*
G01*
X108635000Y-66520000D01*
X109315000Y-66520000D01*
X108975000Y-66990000D01*
G37*
D12*
%TO.C,Y1*%
X100300000Y-78575000D02*
X100300000Y-78575000D01*
X100200000Y-78575000D02*
X100200000Y-78575000D01*
X100200000Y-78575000D02*
G75*
G02*
X100300000Y-78575000I50000J0D01*
G01*
X100300000Y-78575000D02*
G75*
G02*
X100200000Y-78575000I-50000J0D01*
G01*
D10*
%TO.C,R5*%
X117805200Y-55976800D02*
X117805200Y-55376800D01*
%TO.C,R4*%
X121196000Y-55376800D02*
X121196000Y-55976800D01*
%TO.C,R2*%
X102040000Y-58665000D02*
X102040000Y-58665000D01*
X101840000Y-58665000D02*
X101840000Y-58665000D01*
X101840000Y-58665000D02*
G75*
G02*
X102040000Y-58665000I100000J0D01*
G01*
X102040000Y-58665000D02*
G75*
G02*
X101840000Y-58665000I-100000J0D01*
G01*
%TO.C,LED2*%
X117000200Y-58221800D02*
X119400200Y-58221800D01*
X119400200Y-58221800D02*
X119400200Y-56571800D01*
X119400200Y-56571800D02*
X117000200Y-56571800D01*
%TO.C,LED1*%
X122001000Y-56556800D02*
X119601000Y-56556800D01*
X119601000Y-56556800D02*
X119601000Y-58206800D01*
X119601000Y-58206800D02*
X122001000Y-58206800D01*
%TO.C,L2*%
X102850000Y-71500000D02*
X102850000Y-73300000D01*
%TO.C,L1*%
X106410000Y-61350000D02*
X108210000Y-61350000D01*
%TO.C,J17*%
X136550000Y-53020000D02*
X136550000Y-54260000D01*
X136550000Y-54260000D02*
X139090000Y-54260000D01*
X139090000Y-54260000D02*
X139090000Y-46700000D01*
X139090000Y-46700000D02*
X137820000Y-46700000D01*
%TO.C,J16*%
X130450000Y-53020000D02*
X130450000Y-54260000D01*
X130450000Y-54260000D02*
X132990000Y-54260000D01*
X132990000Y-54260000D02*
X132990000Y-46700000D01*
X132990000Y-46700000D02*
X131720000Y-46700000D01*
%TO.C,J15*%
X133500000Y-53020000D02*
X133500000Y-54260000D01*
X133500000Y-54260000D02*
X136040000Y-54260000D01*
X136040000Y-54260000D02*
X136040000Y-46700000D01*
X136040000Y-46700000D02*
X134770000Y-46700000D01*
%TO.C,J14*%
X127400000Y-53020000D02*
X127400000Y-54260000D01*
X127400000Y-54260000D02*
X129940000Y-54260000D01*
X129940000Y-54260000D02*
X129940000Y-46700000D01*
X129940000Y-46700000D02*
X128670000Y-46700000D01*
%TO.C,J13*%
X124350000Y-53020000D02*
X124350000Y-54260000D01*
X124350000Y-54260000D02*
X126890000Y-54260000D01*
X126890000Y-54260000D02*
X126890000Y-46700000D01*
X126890000Y-46700000D02*
X125620000Y-46700000D01*
%TO.C,J12*%
X118250000Y-53010000D02*
X118250000Y-54250000D01*
X118250000Y-54250000D02*
X120790000Y-54250000D01*
X120790000Y-54250000D02*
X120790000Y-46690000D01*
X120790000Y-46690000D02*
X119520000Y-46690000D01*
%TO.C,J11*%
X121300000Y-53020000D02*
X121300000Y-54260000D01*
X121300000Y-54260000D02*
X123840000Y-54260000D01*
X123840000Y-54260000D02*
X123840000Y-46700000D01*
X123840000Y-46700000D02*
X122570000Y-46700000D01*
%TO.C,J10*%
X115175000Y-53020000D02*
X115175000Y-54260000D01*
X115175000Y-54260000D02*
X117715000Y-54260000D01*
X117715000Y-54260000D02*
X117715000Y-46700000D01*
X117715000Y-46700000D02*
X116445000Y-46700000D01*
%TO.C,J8*%
X112125000Y-53010000D02*
X112125000Y-54250000D01*
X112125000Y-54250000D02*
X114665000Y-54250000D01*
X114665000Y-54250000D02*
X114665000Y-46690000D01*
X114665000Y-46690000D02*
X113395000Y-46690000D01*
%TO.C,J7*%
X106000000Y-53020000D02*
X106000000Y-54260000D01*
X106000000Y-54260000D02*
X108540000Y-54260000D01*
X108540000Y-54260000D02*
X108540000Y-46700000D01*
X108540000Y-46700000D02*
X107270000Y-46700000D01*
%TO.C,J6*%
X115775000Y-95800000D02*
X114200000Y-95800000D01*
X114200000Y-95800000D02*
X114200000Y-97225000D01*
X115375000Y-100025000D02*
X123775000Y-100050000D01*
X123375000Y-95800000D02*
X124975000Y-95800000D01*
X124975000Y-95800000D02*
X124950000Y-97225000D01*
D12*
X122700000Y-94225000D02*
X122700000Y-94225000D01*
X122700000Y-94325000D02*
X122700000Y-94325000D01*
X122700000Y-94225000D02*
X122700000Y-94225000D01*
X122700000Y-94325000D02*
G75*
G02*
X122700000Y-94225000I0J50000D01*
G01*
X122700000Y-94225000D02*
G75*
G02*
X122700000Y-94325000I0J-50000D01*
G01*
X122700000Y-94325000D02*
G75*
G02*
X122700000Y-94225000I0J50000D01*
G01*
D10*
%TO.C,J5*%
X128745000Y-95800000D02*
X127170000Y-95800000D01*
X127170000Y-95800000D02*
X127170000Y-97225000D01*
X128345000Y-100025000D02*
X136745000Y-100050000D01*
X136345000Y-95800000D02*
X137945000Y-95800000D01*
X137945000Y-95800000D02*
X137920000Y-97225000D01*
D12*
X135670000Y-94225000D02*
X135670000Y-94225000D01*
X135670000Y-94325000D02*
X135670000Y-94325000D01*
X135670000Y-94225000D02*
X135670000Y-94225000D01*
X135670000Y-94325000D02*
G75*
G02*
X135670000Y-94225000I0J50000D01*
G01*
X135670000Y-94225000D02*
G75*
G02*
X135670000Y-94325000I0J-50000D01*
G01*
X135670000Y-94325000D02*
G75*
G02*
X135670000Y-94225000I0J50000D01*
G01*
D10*
%TO.C,J4*%
X102825000Y-95800000D02*
X101250000Y-95800000D01*
X101250000Y-95800000D02*
X101250000Y-97225000D01*
X102425000Y-100025000D02*
X110825000Y-100050000D01*
X110425000Y-95800000D02*
X112025000Y-95800000D01*
X112025000Y-95800000D02*
X112000000Y-97225000D01*
D12*
X109750000Y-94225000D02*
X109750000Y-94225000D01*
X109750000Y-94325000D02*
X109750000Y-94325000D01*
X109750000Y-94225000D02*
X109750000Y-94225000D01*
X109750000Y-94325000D02*
G75*
G02*
X109750000Y-94225000I0J50000D01*
G01*
X109750000Y-94225000D02*
G75*
G02*
X109750000Y-94325000I0J-50000D01*
G01*
X109750000Y-94325000D02*
G75*
G02*
X109750000Y-94225000I0J50000D01*
G01*
D10*
%TO.C,J3*%
X109075000Y-53020000D02*
X109075000Y-54260000D01*
X109075000Y-54260000D02*
X111615000Y-54260000D01*
X111615000Y-54260000D02*
X111615000Y-46700000D01*
X111615000Y-46700000D02*
X110345000Y-46700000D01*
%TO.C,J2*%
X102960000Y-53010000D02*
X102960000Y-54250000D01*
X102960000Y-54250000D02*
X105500000Y-54250000D01*
X105500000Y-54250000D02*
X105500000Y-46690000D01*
X105500000Y-46690000D02*
X104230000Y-46690000D01*
%TO.C,J1*%
X99925000Y-53020000D02*
X99925000Y-54260000D01*
X99925000Y-54260000D02*
X102465000Y-54260000D01*
X102465000Y-54260000D02*
X102465000Y-46700000D01*
X102465000Y-46700000D02*
X101195000Y-46700000D01*
%TO.C,IC9*%
X133257400Y-63099600D02*
X132507400Y-63099600D01*
X132507400Y-63099600D02*
X132507400Y-60099600D01*
X132507400Y-60099600D02*
X133257400Y-60099600D01*
X133257400Y-60099600D02*
X133257400Y-63099600D01*
X134757400Y-63099600D02*
X133607400Y-63099600D01*
%TO.C,IC8*%
X103483200Y-59681200D02*
X103483200Y-59181200D01*
X103483200Y-59181200D02*
X105583200Y-59181200D01*
X105583200Y-59181200D02*
X105583200Y-59681200D01*
X105583200Y-59681200D02*
X103483200Y-59681200D01*
X103383200Y-60506200D02*
X103383200Y-60031200D01*
%TO.C,IC7*%
X136002800Y-76246000D02*
X136002800Y-75646000D01*
X136002800Y-75646000D02*
X138926800Y-75646000D01*
X138926800Y-75646000D02*
X138926800Y-76246000D01*
X138926800Y-76246000D02*
X136002800Y-76246000D01*
X135864800Y-77796000D02*
X135864800Y-76596000D01*
%TO.C,IC6*%
X120980000Y-93362000D02*
X120380000Y-93362000D01*
X120380000Y-93362000D02*
X120380000Y-90438000D01*
X120380000Y-90438000D02*
X120980000Y-90438000D01*
X120980000Y-90438000D02*
X120980000Y-93362000D01*
X122530000Y-93500000D02*
X121330000Y-93500000D01*
%TO.C,IC5*%
X116740000Y-93372000D02*
X116140000Y-93372000D01*
X116140000Y-93372000D02*
X116140000Y-90448000D01*
X116140000Y-90448000D02*
X116740000Y-90448000D01*
X116740000Y-90448000D02*
X116740000Y-93372000D01*
X118290000Y-93510000D02*
X117090000Y-93510000D01*
%TO.C,IC4*%
X128780000Y-90438000D02*
X129380000Y-90438000D01*
X129380000Y-90438000D02*
X129380000Y-93362000D01*
X129380000Y-93362000D02*
X128780000Y-93362000D01*
X128780000Y-93362000D02*
X128780000Y-90438000D01*
X127230000Y-90300000D02*
X128430000Y-90300000D01*
%TO.C,IC3*%
X124580000Y-90438000D02*
X125180000Y-90438000D01*
X125180000Y-90438000D02*
X125180000Y-93362000D01*
X125180000Y-93362000D02*
X124580000Y-93362000D01*
X124580000Y-93362000D02*
X124580000Y-90438000D01*
X123030000Y-90300000D02*
X124230000Y-90300000D01*
%TO.C,IC2*%
X111930000Y-90448000D02*
X112530000Y-90448000D01*
X112530000Y-90448000D02*
X112530000Y-93372000D01*
X112530000Y-93372000D02*
X111930000Y-93372000D01*
X111930000Y-93372000D02*
X111930000Y-90448000D01*
X110380000Y-90310000D02*
X111580000Y-90310000D01*
%TO.C,IC1*%
X107730000Y-90448000D02*
X108330000Y-90448000D01*
X108330000Y-90448000D02*
X108330000Y-93372000D01*
X108330000Y-93372000D02*
X107730000Y-93372000D01*
X107730000Y-93372000D02*
X107730000Y-90448000D01*
X106180000Y-90310000D02*
X107380000Y-90310000D01*
%TO.C,D2*%
X125488800Y-60643400D02*
X125488800Y-56973400D01*
X127088800Y-59663400D02*
X127088800Y-56973400D01*
%TO.C,D1*%
X114635000Y-58770000D02*
X110965000Y-58770000D01*
X113655000Y-57170000D02*
X110965000Y-57170000D01*
%TO.C,C30*%
X112000000Y-62425000D02*
X113400000Y-62425000D01*
%TO.C,C28*%
X133815000Y-65535000D02*
X133815000Y-66935000D01*
%TO.C,C27*%
X133745200Y-76110600D02*
X132345200Y-76110600D01*
%TO.C,C26*%
X129630000Y-88370000D02*
X129630000Y-89770000D01*
%TO.C,C17*%
X133850000Y-67710000D02*
X133850000Y-69110000D01*
%TO.C,C15*%
X125070000Y-89610000D02*
X125070000Y-88210000D01*
%TO.C,C5*%
X128992400Y-61569600D02*
X130392400Y-61569600D01*
%TO.C,C4*%
X106580000Y-57290000D02*
X107980000Y-57290000D01*
%TO.C,C3*%
X135829600Y-61355600D02*
X137229600Y-61355600D01*
D11*
%TO.C,J18*%
X104394000Y-90805000D02*
X103759000Y-90805000D01*
X104394000Y-90170000D02*
X104394000Y-90805000D01*
D13*
%TO.C,J9*%
X135441800Y-83820400D02*
X136981800Y-83820400D01*
X140826800Y-83820400D02*
X139471800Y-83820400D01*
X135441800Y-92760400D02*
X136981800Y-92760400D01*
X140826800Y-92760400D02*
X139471800Y-92760400D01*
X140826800Y-83820400D02*
X140826800Y-92760400D01*
%TD*%
M02*
